<svg xmlns="http://www.w3.org/2000/svg" viewBox="0 0 128 128">
  <rect width="128" height="128" rx="28" fill="#15120F" />
  <rect x="10" y="10" width="108" height="108" rx="22" fill="none" stroke="#37C85E" stroke-width="4" />
  <path d="M32 88V40h17c10 0 17 6 17 16 0 7-4 12-10 14l13 18H55L44 72h-1v16H32Zm11-25h5c4 0 7-3 7-7 0-5-3-7-7-7h-5v14Z" fill="#F6F0E8" />
  <path d="M74 84c0-12 7-19 18-19 6 0 11 2 14 5l-5 8c-2-2-5-3-8-3-5 0-9 3-9 9s4 9 9 9c3 0 6-1 8-3l5 8c-4 3-9 5-14 5-11 0-18-7-18-19Z" fill="#CB2F23" />
</svg>
